{"title":"Avengers: Infinity War (2018) 720p New ProPer HDTSRip x264 AAC","magnet":"magnet:?xt=urn:btih:c19f67f6fd6316210a7584e84574898836155b0f&dn=Avengers%3A+Infinity+War+%282018%29+720p+New+ProPer+HDTSRip+x264+AAC&tr=udp%3A%2F%2Ftracker.leechers-paradise.org%3A6969&tr=udp%3A%2F%2Fzer0day.ch%3A1337&tr=udp%3A%2F%2Fopen.demonii.com%3A1337&tr=udp%3A%2F%2Ftracker.coppersurfer.tk%3A6969&tr=udp%3A%2F%2Fexodus.desync.com%3A6969","uploader":"shmasti","categoryP":"video","categoryS":"movies","size":"828818353","seeders":"5","leechers":"23","description":"General\r\nComplete name                  : Avengers Infinity War (2018) 720p New ProPer HDTSRip x264 AAC by Full4movies.mkv\r\nFormat                         : Matroska\r\nFormat version                 : Version 4 / Version 2\r\nFile size                      : 790 MiB\r\nDuration                       : 2 h 28 min\r\nOverall bit rate               : 743 kb/s\r\nMovie name                     : Avengers Infinity War (2018) - www.Full4movies.co\r\nEncoded date                   : UTC 2018-04-29 09:35:56\r\nWriting application            : mkvmerge v8.1.0 (&apos;Psychedelic Postcard&apos;) 32bit\r\nWriting library                : libebml v1.3.1 + libmatroska v1.4.2\r\n\r\nVideo\r\nID                             : 1\r\nFormat                         : AVC\r\nFormat/Info                    : Advanced Video Codec\r\nFormat profile                 : <a href=\"/cdn-cgi/l/email-protection\" class=\"__cf_email__\" data-cfemail=\"ce86a7a9a68e82fde0ff\">[email&#xA0;protected]</a>\r\nFormat settings, CABAC         : Yes\r\nFormat settings, RefFrames     : 4 frames\r\nCodec ID                       : V_MPEG4/ISO/AVC\r\nDuration                       : 2 h 28 min\r\nBit rate                       : 678 kb/s\r\nWidth                          : 1 280 pixels\r\nHeight                         : 528 pixels\r\nDisplay aspect ratio           : 2.40:1\r\nFrame rate mode                : Variable\r\nFrame rate                     : 30.000 FPS\r\nColor space                    : YUV\r\nChroma subsampling             : 4:2:0\r\nBit depth                      : 8 bits\r\nScan type                      : Progressive\r\nBits/(Pixel*Frame)             : 0.033\r\nStream size                    : 722 MiB (91%)\r\nWriting library                : x264 core 155 r2901 7d0ff22\r\nLanguage                       : English\r\nDefault                        : Yes\r\nForced                         : No\r\n\r\nAudio\r\nID                             : 2\r\nFormat                         : AAC\r\nFormat/Info                    : Advanced Audio Codec\r\nFormat profile                 : LC\r\nCodec ID                       : A_AAC\r\nDuration                       : 2 h 28 min\r\nBit rate                       : 61.3 kb/s\r\nChannel(s)                     : 2 channels\r\nChannel positions              : Front: L R\r\nSampling rate                  : 44.1 kHz\r\nFrame rate                     : 43.066 FPS (1024 SPF)\r\nCompression mode               : Lossy\r\nDelay relative to video        : -23 ms\r\nStream size                    : 65.3 MiB (8%)\r\nLanguage                       : English\r\nDefault                        : Yes\r\nForced                         : No","last_updated":"2018-04-29T12:02:27.914Z","parsed":{"xt":"urn:btih:c19f67f6fd6316210a7584e84574898836155b0f","dn":"Avengers: Infinity War (2018) 720p New ProPer HDTSRip x264 AAC","tr":["udp://exodus.desync.com:6969","udp://open.demonii.com:1337","udp://tracker.coppersurfer.tk:6969","udp://tracker.leechers-paradise.org:6969","udp://zer0day.ch:1337"],"infoHash":"c19f67f6fd6316210a7584e84574898836155b0f","infoHashBuffer":{"type":"Buffer","data":[193,159,103,246,253,99,22,33,10,117,132,232,69,116,137,136,54,21,91,15]},"name":"Avengers: Infinity War (2018) 720p New ProPer HDTSRip x264 AAC","announce":["udp://exodus.desync.com:6969","udp://open.demonii.com:1337","udp://tracker.coppersurfer.tk:6969","udp://tracker.leechers-paradise.org:6969","udp://zer0day.ch:1337"],"urlList":[]}}